<?xml version="1.0" standalone="no"?>
<!DOCTYPE svg PUBLIC "-//W3C//DTD SVG 20010904//EN"
 "http://www.w3.org/TR/2001/REC-SVG-20010904/DTD/svg10.dtd">
<svg version="1.0" xmlns="http://www.w3.org/2000/svg"
 width="1300.000000pt" height="1300.000000pt" viewBox="0 0 1300.000000 1300.000000"
 preserveAspectRatio="xMidYMid meet">
<metadata>
Created by potrace 1.11, written by Peter Selinger 2001-2013
</metadata>
<g transform="translate(0.000000,1300.000000) scale(0.100000,-0.100000)"
fill="#000000" stroke="none">
<path d="M6230 12994 c-312 -21 -396 -28 -530 -45 -1452 -183 -2764 -825
-3794 -1855 -503 -503 -903 -1057 -1220 -1692 -381 -761 -596 -1540 -668
-2417 -16 -198 -16 -768 0 -970 128 -1579 782 -3003 1888 -4109 503 -503 1057
-903 1692 -1220 761 -381 1539 -596 2417 -668 193 -16 777 -16 970 0 545 45
1045 144 1535 304 1202 393 2276 1140 3063 2130 152 191 223 290 359 498 601
918 949 1944 1040 3065 16 202 16 772 0 970 -45 544 -144 1045 -304 1535 -393
1202 -1140 2276 -2130 3063 -191 152 -290 223 -498 359 -913 598 -1948 950
-3050 1038 -137 11 -670 21 -770 14z m630 -4019 c542 -82 1020 -324 1406 -709
385 -386 628 -867 709 -1406 23 -152 30 -430 16 -580 -7 -69 -15 -127 -17
-130 -3 -2 -11 0 -18 5 -7 6 -49 36 -92 68 -93 68 -286 166 -398 202 -673 216
-1408 -64 -1760 -671 -214 -370 -262 -812 -131 -1220 36 -112 134 -305 202
-398 32 -43 62 -85 68 -92 5 -7 7 -15 5 -18 -3 -2 -61 -10 -130 -17 -150 -14
-428 -7 -580 16 -539 81 -1020 324 -1406 709 -388 389 -626 862 -711 1416 -24
161 -24 539 0 700 85 554 323 1027 711 1416 416 415 938 663 1526 724 123 13
476 4 600 -15z m1760 -3991 c79 -18 166 -67 230 -130 198 -193 198 -515 0
-708 -197 -193 -503 -193 -700 0 -197 192 -198 506 -4 704 122 126 296 175
474 134z"/>
</g>
</svg>
