<svg xmlns="http://www.w3.org/2000/svg" xmlns:xlink="http://www.w3.org/1999/xlink">

<symbol id="telegram" fill-rule="evenodd" clip-rule="evenodd" stroke-linejoin="round" stroke-miterlimit="1.414" viewBox="0 0 16 16"><path d="M10.563,11.596l1.286-6.063c0.053-0.256,0.022-0.44-0.092-0.551c-0.113-0.111-0.264-0.131-0.45-0.061l-7.56,2.914 C3.579,7.897,3.463,7.971,3.402,8.052C3.34,8.134,3.333,8.211,3.38,8.284s0.14,0.13,0.28,0.171l1.934,0.604l4.489-2.826 c0.123-0.082,0.216-0.099,0.28-0.053c0.041,0.029,0.029,0.073-0.035,0.131L6.696,9.592l-0.14,1.996c0.134,0,0.265-0.064,0.394-0.193 l0.945-0.91l1.96,1.444C10.229,12.139,10.465,12.027,10.563,11.596z M15.84,8c0,1.062-0.207,2.077-0.621,3.045 c-0.414,0.969-0.972,1.803-1.671,2.503c-0.7,0.699-1.534,1.257-2.503,1.671C10.077,15.633,9.062,15.84,8,15.84 s-2.077-0.207-3.045-0.621c-0.969-0.414-1.803-0.972-2.502-1.671c-0.7-0.7-1.257-1.534-1.671-2.503C0.367,10.077,0.16,9.062,0.16,8 s0.207-2.077,0.621-3.045c0.414-0.969,0.971-1.803,1.671-2.502c0.7-0.7,1.534-1.257,2.502-1.671C5.923,0.367,6.938,0.16,8,0.16 s2.077,0.207,3.045,0.621c0.969,0.414,1.803,0.971,2.503,1.671c0.699,0.7,1.257,1.534,1.671,2.502C15.633,5.923,15.84,6.938,15.84,8 z"/>
</symbol>
<symbol id="github" fill-rule="evenodd" clip-rule="evenodd" stroke-linejoin="round" stroke-miterlimit="1.414" viewBox="0 0 16 16"><path d="M8 0C3.58 0 0 3.582 0 8c0 3.535 2.292 6.533 5.47 7.59.4.075.547-.172.547-.385 0-.19-.007-.693-.01-1.36-2.226.483-2.695-1.073-2.695-1.073-.364-.924-.89-1.17-.89-1.17-.725-.496.056-.486.056-.486.803.056 1.225.824 1.225.824.714 1.223 1.873.87 2.33.665.072-.517.278-.87.507-1.07-1.777-.2-3.644-.888-3.644-3.953 0-.873.31-1.587.823-2.147-.09-.202-.36-1.015.07-2.117 0 0 .67-.215 2.2.82.64-.178 1.32-.266 2-.27.68.004 1.36.092 2 .27 1.52-1.035 2.19-.82 2.19-.82.43 1.102.16 1.915.08 2.117.51.56.82 1.274.82 2.147 0 3.073-1.87 3.75-3.65 3.947.28.24.54.73.54 1.48 0 1.07-.01 1.93-.01 2.19 0 .21.14.46.55.38C13.71 14.53 16 11.53 16 8c0-4.418-3.582-8-8-8"/>
</symbol>
<symbol id="douban" fill-rule="evenodd" clip-rule="evenodd" stroke-linejoin="round" stroke-miterlimit="1.414" viewBox="0 0 16 16"><path d="M 11.633363,4.6631773 H 4.3110216 v 2.8423484 h 7.3223414 z m 1.807056,4.2541109 q -0.997646,-0.075294 -2.277644,-0.112941 -1.261174,-0.05647 -3.1623475,-0.05647 -0.9599985,0 -1.731762,0.018823 -0.7717635,0 -1.4305859,0.037647 -0.639999,0.018823 -1.1858805,0.05647 -0.5458815,0.037647 -1.054116,0.075294 0.075294,-0.6211755 0.112941,-1.392939 0.037647,-0.7717634 0.037647,-1.5999974 0,-0.790587 -0.037647,-1.50588 -0.037647,-0.715293 -0.112941,-1.2611745 0.5082345,0.056471 1.054116,0.094117 0.5458815,0.037647 1.1858805,0.075294 0.6588224,0.018823 1.4305859,0.037647 0.7717635,0 1.731762,0 1.9011735,0 3.1623475,-0.056471 1.279998,-0.056471 2.277644,-0.150588 -0.07529,0.5458815 -0.112941,1.2611745 -0.03765,0.715293 -0.03765,1.50588 0,0.828234 0.01882,1.5435269 0.03765,0.6964695 0.131765,1.430586 z M 5.0827851,12.889047 q -0.301176,-0.75294 -0.7341165,-1.44941 -0.414117,-0.696469 -0.8470575,-1.261174 l 1.355292,-0.6588228 q 0.4329404,0.5270578 0.9035279,1.2235278 0.489411,0.696469 0.8470575,1.374115 z M 15.473357,1.6514173 q -1.336469,-0.075294 -3.105878,-0.112941 -1.750585,-0.05647 -4.2541105,-0.05647 -1.2611745,0 -2.3152905,0.018823 -1.0541159,0 -1.9576439,0.018824 -0.903528,0.018823 -1.6752915,0.05647 -0.75294,0.037647 -1.43058597,0.075294 V 0.05141987 q 0.67764597,0.037647 1.44940947,0.075294 0.7717635,0.037647 1.656468,0.0564705 0.903528,0.0188235 1.9576439,0.037647 1.054116,0 2.3152905,0 2.5035255,0 4.2541105,-0.037647 1.769409,-0.037647 3.105878,-0.1317645 z M 8.7533675,13.152576 Q 9.449837,12.09846 10.033365,11.02552 q 0.583529,-1.0917628 0.865881,-1.9388203 0.169412,0.112941 0.432941,0.2447055 0.282352,0.1317645 0.564705,0.2447055 0.282352,0.112941 0.527058,0.2070585 0.244705,0.075294 0.357646,0.075294 0.169412,0.018824 0.188235,0.094118 0.01882,0.075294 -0.150588,0.1694113 -0.150588,0.09412 -0.357646,0.282353 -0.207059,0.188235 -0.527058,0.545881 -0.301176,0.357647 -0.715293,0.903528 -0.395294,0.527058 -0.922352,1.298822 1.731762,0 3.218819,-0.05647 1.487056,-0.05647 2.559996,-0.150588 v 1.807056 q -1.411763,-0.07529 -3.407054,-0.112941 -1.976467,-0.03765 -4.611757,-0.03765 -2.63529,0 -4.6117574,0.03765 -1.957644,0.03765 -3.36940646,0.112941 v -1.807056 q 1.12940996,0.09412 2.54117246,0.150588 1.4117625,0.05647 3.1811714,0.05647 z"/>
</symbol>
<symbol id="mastodon" fill-rule="evenodd" clip-rule="evenodd" stroke-linejoin="round" stroke-miterlimit="1.414" viewBox="0 0 16 16"><path d="M15.195,5.352c0-3.347-2.193-4.328-2.193-4.328c-1.104-0.508-3.004-0.721-4.977-0.737H7.977 c-1.973,0.016-3.87,0.229-4.976,0.737c0,0-2.193,0.981-2.193,4.328c0,0.766-0.015,1.683,0.009,2.654c0.08,3.272,0.6,6.499,3.626,7.3 c1.396,0.369,2.594,0.446,3.559,0.394c1.75-0.097,2.732-0.624,2.732-0.624l-0.058-1.27c0,0-1.25,0.395-2.655,0.346 c-1.391-0.047-2.86-0.149-3.085-1.857c-0.021-0.15-0.031-0.312-0.031-0.479c0,0,1.365,0.334,3.096,0.413 c1.059,0.049,2.051-0.062,3.059-0.182c1.934-0.231,3.616-1.422,3.828-2.51C15.224,7.821,15.195,5.352,15.195,5.352z M12.609,9.664 h-1.606V5.73c0-0.83-0.349-1.25-1.047-1.25c-0.772,0-1.158,0.5-1.158,1.486V8.12H7.202V5.966c0-0.987-0.387-1.486-1.158-1.486 c-0.698,0-1.046,0.421-1.046,1.25v3.933H3.391V5.611c0-0.829,0.211-1.487,0.634-1.974c0.437-0.487,1.009-0.736,1.719-0.736 c0.822,0,1.444,0.315,1.855,0.947L8,4.519l0.4-0.67c0.412-0.632,1.033-0.947,1.855-0.947c0.71,0,1.282,0.25,1.72,0.736 c0.423,0.487,0.635,1.145,0.635,1.974V9.664z"/>
</symbol>
<symbol id="rss" fill-rule="evenodd" clip-rule="evenodd" stroke-linejoin="round" stroke-miterlimit="1.414" viewBox="0 0 16 16"><path d="M12.8 16C12.8 8.978 7.022 3.2 0 3.2V0c8.777 0 16 7.223 16 16h-3.2zM2.194 11.61c1.21 0 2.195.985 2.195 2.196 0 1.21-.99 2.194-2.2 2.194C.98 16 0 15.017 0 13.806c0-1.21.983-2.195 2.194-2.195zM10.606 16h-3.11c0-4.113-3.383-7.497-7.496-7.497v-3.11c5.818 0 10.606 4.79 10.606 10.607z"/>
</symbol>
</svg>
